<svg width="240" height="64" viewBox="0 0 240 64" fill="none" xmlns="http://www.w3.org/2000/svg">
  <title>MyFrame</title>
  <g transform="translate(0 4) scale(0.09275)">
    <path fill="#D91E1E" d="M438.37,0.11H165.99C74.82,0.11,0.23,74.7,0.23,165.86v272.39C0.23,529.41,74.82,604,165.99,604h272.39 c91.16,0,165.75-74.59,165.75-165.75V165.86C604.13,74.7,529.54,0.11,438.37,0.11z M451.22,484.96 c-49.83,2.62-99.67,5.12-149.51,7.67c-4.63,0.24-9.26,0.47-13.88,0.71c0,0.02,0,0.05,0,0.07c-53.05,2.62-106.09,5.28-159.14,7.83 c-13.95,0.67-17.83-2.73-19.54-16.49C97.25,389.14,85.36,293.53,73.5,197.91c-1.87-15.07,0.73-17.6,15.98-16.66 c106.36,6.61,212.72,13.25,319.09,19.63c10.66,0.64,15.84,4.86,17.58,15.7c12.26,76.55,24.98,153.02,37.51,229.53 c1.09,6.66,1.92,13.37,2.79,20.07C468.38,481.06,465.97,484.18,451.22,484.96z M473.18,223.16c-7.74,0.61-11.92-3.07-12.75-11.53 c-2.39-24.49-16.3-37.04-40.93-37.92c-10.23-0.37-15.13-4.29-14.75-11.82c0.41-8.13,6-12.19,16.09-11.72 c33.96,1.59,61.36,27.36,62.69,57.9C484.18,216.85,481.38,222.51,473.18,223.16z M520.55,224.68c-7.41,0.72-11.98-4.11-12.58-13.03 c-2.21-33.06-16.29-59.09-45.71-75.75c-12.61-7.14-26.44-10.13-40.86-10.5c-13.6-0.35-18.01-3.13-17.74-11.4 c0.28-8.43,5.13-11.43,18.14-11.2c55.08,0.94,101.35,42.76,108.07,97.63c0.38,3.12,1.09,6.21,1.4,9.34 C532.12,218.31,528,223.96,520.55,224.68z"/>
    <path fill="#D91E1E" d="M228.09,350.36c23.57-0.31,41.32-19.92,41.13-45.44c-0.22-30.18-22.17-54.73-48.66-54.43 c-23.36,0.26-42.16,21.46-42.15,47.54C178.42,326.68,201.23,350.71,228.09,350.36z"/>
    <path fill="#D91E1E" d="M353.9,373.35c13.23-2.78,20.38-12.19,24.67-24.18c3.39-9.47,1.99-18.98-0.7-28.29 c-5.42-18.77-23.16-31.3-40.78-29.08c-16.74,2.11-28.06,17.55-28.19,38.4c-0.12,11.86,3.65,22.44,11.53,31.22 C329.29,371.31,340.45,376.17,353.9,373.35z"/>
    <path fill="#D91E1E" d="M336.24,386.74c-9.4,2.26-18.03,12.21-25.75,9.86c-7.97-2.43-13.94-12.59-22.31-17.44 c-34.66-20.08-70.46-24.17-105.13-1.91c-30.98,19.89-43.09,49.74-37.82,86.51c0.95,6.65,2.87,9.32,9.88,8.71 c11.71-1.01,23.48-1.2,35.23-1.74c0,0.04,0,0.08,0.01,0.12c38.8-1.78,77.6-3.5,116.4-5.36c36.66-1.76,73.31-3.73,109.98-5.45 c5.47-0.26,8.28-1.14,7.76-7.94C421.01,406.95,379.62,376.3,336.24,386.74z"/>
  </g>
  <text x="68" y="42" font-family="-apple-system,BlinkMacSystemFont,'SF Pro Display','Inter',Arial,sans-serif" font-size="30" font-weight="800" letter-spacing="0">
    <tspan fill="#D91E1E">My</tspan><tspan fill="#111111">Frame</tspan>
  </text>
</svg>
